FILE "PowerMonger (1994)(Bullfrog - Electronic Arts)(EU)(en).img" BINARY
  TRACK 01 MODE1/2352
    INDEX 01 00:00:00
  TRACK 02 AUDIO
    PREGAP 00:02:00
    INDEX 01 36:39:19
  TRACK 03 AUDIO
    INDEX 01 37:06:10
  TRACK 04 AUDIO
    INDEX 01 42:09:47
  TRACK 05 AUDIO
    INDEX 01 43:28:56
  TRACK 06 AUDIO
    INDEX 01 46:06:06
  TRACK 07 AUDIO
    INDEX 01 48:42:70
  TRACK 08 AUDIO
    INDEX 01 50:49:10
  TRACK 09 AUDIO
    INDEX 01 51:05:64
  TRACK 10 AUDIO
    INDEX 01 51:32:55
